<svg width="158" height="40" viewBox="0 0 158 40" fill="none" xmlns="http://www.w3.org/2000/svg">
<g clip-path="url(#clip0_4376_45598)">
<path d="M94.506 31.956L93.7199 32.8855C93.3268 32.4208 92.77 32.1163 92.2214 32.1163C91.1978 32.1163 90.4035 32.8855 90.4035 33.8952C90.4035 34.8968 91.1896 35.6741 92.2214 35.6741C92.77 35.6741 93.3268 35.4417 93.7199 34.9769L94.506 35.8263C93.8755 36.4433 93.0075 36.8279 92.1395 36.8279C90.4035 36.8279 89.0605 35.5138 89.0605 33.8952C89.0605 32.1964 90.4035 30.9624 92.2132 30.9624C93.0075 31.0345 93.8755 31.4191 94.506 31.956Z" fill="white"/>
<path d="M99.0001 32.4208L98.0503 34.6564H99.9418L99.0001 32.4208ZM97.6572 35.7382L97.1823 36.892H95.7656L98.3696 31.0986H99.7863L102.308 36.892H100.892L100.417 35.7382H97.6572Z" fill="white"/>
<path d="M107.992 35.6657V36.8196H104.127V31.0342H105.47V35.6657H107.992Z" fill="white"/>
<path d="M115.174 31.956L114.388 32.8855C113.995 32.4208 113.438 32.1163 112.889 32.1163C111.866 32.1163 111.071 32.8855 111.071 33.8952C111.071 34.8968 111.858 35.6741 112.889 35.6741C113.438 35.6741 113.995 35.4417 114.388 34.9769L115.174 35.8263C114.543 36.4433 113.675 36.8279 112.807 36.8279C111.071 36.8279 109.729 35.5138 109.729 33.8952C109.729 32.1964 111.071 30.9624 112.881 30.9624C113.675 31.0345 114.543 31.4191 115.174 31.956Z" fill="white"/>
<path d="M122.428 34.4239C122.428 35.9704 121.405 36.8919 119.743 36.8919C118.088 36.8919 117.057 35.9624 117.057 34.4239V31.0264H118.4V34.4239C118.4 35.2733 118.948 35.738 119.743 35.738C120.529 35.738 121.085 35.2011 121.085 34.4239V31.0264H122.428V34.4239Z" fill="white"/>
<path d="M128.816 35.6657V36.8196H124.951V31.0342H126.294V35.6657H128.816Z" fill="white"/>
<path d="M133.393 32.4208L132.443 34.6564H134.334L133.393 32.4208ZM132.05 35.7382L131.575 36.892H130.158L132.762 31.0986H134.179L136.701 36.892H135.284L134.809 35.7382H132.05Z" fill="white"/>
<path d="M140.492 32.1882V36.8999H139.15V32.1882H137.34V31.1064H142.31V32.1882H140.492Z" fill="white"/>
<path d="M144.907 33.9669C144.907 34.9686 145.775 35.7458 146.725 35.7458C147.675 35.7458 148.543 34.9766 148.543 33.9669C148.543 32.9653 147.757 32.1881 146.725 32.1881C145.701 32.1881 144.907 32.9573 144.907 33.9669ZM149.878 33.9669C149.878 35.6657 148.535 36.8997 146.725 36.8997C144.907 36.8997 143.572 35.5856 143.572 33.9669C143.572 32.2682 144.915 31.0342 146.725 31.0342C148.543 31.0342 149.878 32.2682 149.878 33.9669Z" fill="white"/>
<path d="M154.611 34.1192C155.324 34.1192 155.791 33.8067 155.791 33.1176C155.791 32.5006 155.398 32.1881 154.611 32.1881H153.35V34.1192H154.611ZM154.693 35.2009H154.538H153.277V36.8196H152.016V31.0342H154.62C156.2 31.0342 157.068 31.7313 157.068 33.0374C157.068 33.9669 156.675 34.5839 155.963 34.8884L157.224 36.8196H155.725L154.693 35.2009Z" fill="white"/>
<path d="M8.4425 0L6.07598 2.39589L9.70355 5.94566L7.88567 7.71653L6.07598 9.49542L2.44841 5.86553L0 8.26142L3.62757 11.8112L1.81788 13.5821L1.89158 25.3932L7.88567 19.5277L13.8798 13.5821L19.9557 7.71653L13.8798 1.85101L12.0701 3.6299L8.4425 0Z" fill="#B089F4"/>
<path d="M25.949 1.77881V13.582L19.9549 7.71645L13.8789 1.85093L25.949 1.77881Z" fill="#CBB0F8"/>
<path d="M25.8752 37.2045H13.8788L7.81102 31.2669L1.89062 25.3934L7.88472 19.5278L13.8788 25.3934L19.8811 31.2669L25.8752 37.2045Z" fill="#9067FF"/>
<path d="M31.9447 19.5277L25.9506 25.3932L19.8828 31.2668L25.8769 37.2044L27.6866 35.4335L31.5516 39.2157L34 36.8198L30.135 33.0376L31.9447 31.2668L33.7626 29.4879L37.6276 33.27L40.076 30.8741L36.211 27.092L37.947 25.3932L38.0207 13.582L31.9447 19.5277Z" fill="#7C3AED"/>
<g opacity="0.5">
<path d="M7.88472 19.5278L1.89062 25.3934L9.46513 21.0743L7.88472 19.5278Z" fill="#57459E"/>
</g>
<path d="M19.9553 7.71631L18.293 9.32692L18.3012 9.34295L19.9553 7.71631Z" fill="#D6CFED"/>
<g opacity="0.25">
<path d="M13.8789 1.85107L18.2926 9.32722L19.9549 7.7166L13.8789 1.85107Z" fill="#57459E"/>
</g>
<path d="M21.6925 29.5679L19.8828 31.2586L25.8769 37.2043L21.6925 29.5679Z" fill="#57459E"/>
<path d="M57.4266 25.9383C55.6906 27.5569 53.5616 28.3342 51.1951 28.3342C45.0454 28.3342 42.4414 24.1674 42.4414 20.0006C42.4414 15.7537 45.201 11.5068 51.1951 11.5068C53.406 11.5068 55.5351 12.3562 57.2711 13.9748L55.2239 15.906C54.1184 14.8242 52.7018 14.3595 51.2033 14.3595C47.2563 14.3595 45.5203 17.2922 45.5203 19.9926C45.5203 22.693 47.1007 25.4735 51.2033 25.4735C52.6199 25.4735 54.2822 24.8565 55.3877 23.8549L57.4266 25.9383Z" fill="white"/>
<path d="M60.8982 16.595L61.1356 17.9092C62.0036 16.5229 63.2647 16.2905 64.452 16.2905C65.6394 16.2905 66.8186 16.7553 67.4491 17.3723L66.188 19.8403C65.5575 19.3755 65.0826 19.071 64.1409 19.071C62.6423 19.071 61.2257 19.8403 61.2257 21.9237V27.9414H58.3105V16.595H60.8982Z" fill="white"/>
<path d="M80.9369 16.5947L73.8374 32.7329H70.6765L72.8875 27.7889L68.2363 16.5947H71.5445L73.2805 21.5388L74.386 24.776L75.5734 21.6109L77.7024 16.5947H80.9369Z" fill="white"/>
<path d="M92.2128 22.3083C92.2128 20.5294 90.9517 19.063 88.8964 19.063C86.8492 19.063 85.58 20.5294 85.58 22.3083C85.58 24.0872 86.9229 25.5536 88.8964 25.5536C90.878 25.5536 92.2128 24.0872 92.2128 22.3083ZM82.4355 32.7332V16.595H85.1214L85.277 18.1415C86.145 16.9075 87.7254 16.2905 89.0602 16.2905C92.6058 16.2905 95.0543 18.9188 95.0543 22.2362C95.0543 25.5536 92.9252 28.1818 89.2157 28.1818C87.9547 28.1818 86.1368 27.7972 85.3507 26.5632V32.6611L82.4355 32.7332Z" fill="white"/>
<path d="M101.285 13.4297V16.675H104.52V19.0708H101.285V24.0149C101.285 25.0966 101.916 25.6335 102.784 25.6335C103.259 25.6335 103.734 25.4813 104.2 25.2489L104.986 27.6448C104.118 27.9573 103.488 28.1095 102.62 28.1095C100.098 28.1897 98.4355 26.7954 98.4355 23.9428V18.9907H96.2246V16.5948H98.4355V13.6621L101.285 13.4297Z" fill="white"/>
<path d="M108.943 22.308C108.943 24.0067 110.048 25.6253 112.096 25.6253C114.225 25.6253 115.248 24.0067 115.248 22.308C115.248 20.6092 113.987 18.9104 112.096 18.9104C110.04 18.9906 108.943 20.6092 108.943 22.308ZM118.172 22.308C118.172 25.5532 115.887 28.2536 112.096 28.2536C108.313 28.2536 106.102 25.6253 106.102 22.308C106.102 19.0627 108.386 16.3623 112.096 16.3623C115.805 16.3623 118.172 19.0627 118.172 22.308Z" fill="white"/>
<path d="M124.64 14.5916H119.432V11.811H133V14.5916H127.792V27.9412H124.64V14.5916Z" fill="white"/>
<path d="M133.943 22.308C133.943 24.4715 135.441 25.7776 137.414 25.7776C141.91 25.7776 141.91 18.9105 137.414 18.9105C135.441 18.8384 133.943 20.1445 133.943 22.308ZM140.886 16.5947H143.646V27.9412H140.96L140.805 26.2424C140.174 27.5565 138.356 28.2457 137.021 28.2457C133.549 28.2457 131.027 26.1623 131.027 22.2279C131.027 18.2935 133.713 16.2822 137.103 16.2822C138.684 16.2822 140.182 16.9794 140.813 18.1332L140.886 16.5947Z" fill="white"/>
<path d="M153.505 16.5947L151.221 20.457L148.936 16.5947H145.464V16.6749L149.247 22.1558L145.227 27.869V27.9412H148.699L151.221 24.159L153.743 27.9412H157.215V27.869L153.194 22.1558L156.977 16.6749V16.5947H153.505Z" fill="white"/>
</g>
<defs>
<clipPath id="clip0_4376_45598">
<rect width="157.214" height="39.2157" fill="white"/>
</clipPath>
</defs>
</svg>
